<svg width="14" height="14" viewBox="0 0 14 14" fill="none" xmlns="http://www.w3.org/2000/svg">
<path d="M12 0H2C0.89543 0 0 0.89543 0 2V12C0 13.1046 0.89543 14 2 14H12C13.1046 14 14 13.1046 14 12V2C14 0.89543 13.1046 0 12 0Z" fill="#904EE2"/>
<path fill-rule="evenodd" clip-rule="evenodd" d="M9.923 6.757L9.921 6.753C9.967 6.678 10 6.595 10 6.5C10 6.224 9.776 6 9.5 6H7V3.5C7 3.224 6.776 3 6.5 3C6.328 3 6.185 3.092 6.095 3.223C6.067 3.264 6.044 3.306 6.029 3.353L4.081 7.237L4.083 7.24C4.035 7.317 4 7.403 4 7.5C4 7.777 4.224 8 4.5 8H7V10.5C7 10.777 7.224 11 7.5 11C7.679 11 7.829 10.901 7.918 10.759L7.921 10.76L7.934 10.734C7.945 10.713 7.957 10.694 7.965 10.672L9.923 6.757Z" fill="white"/>
</svg>
